<svg xmlns="http://www.w3.org/2000/svg" version="1.1" xmlns:xlink="http://www.w3.org/1999/xlink" xmlnssvgjs="http://svgjs.dev/svgjs" width="2000" height="1252" viewBox="0 0 2000 1252"><g transform="matrix(1,0,0,1,-1.2121212121211329,-2.01935483870966)"><svg viewBox="0 0 396 248" data-background-color="#f8f8f8" preserveAspectRatio="xMidYMid meet" height="1252" width="2000" xmlns="http://www.w3.org/2000/svg" xmlns:xlink="http://www.w3.org/1999/xlink"><g id="tight-bounds" transform="matrix(1,0,0,1,0.2400000000000091,0.4000000000000057)"><svg viewBox="0 0 395.52 247.2" height="247.2" width="395.52"><g><svg></svg></g><g><svg viewBox="0 0 395.52 247.2" height="247.2" width="395.52"><g transform="matrix(1,0,0,1,75.54432000000001,71.47926723445204)"><svg viewBox="0 0 244.43135999999996 104.2414655310959" height="104.2414655310959" width="244.43135999999996"><g><svg viewBox="0 0 458.7583027237823 195.64444513373905" height="104.2414655310959" width="244.43135999999996"><g transform="matrix(1,0,0,1,214.32694272378234,78.03781247219314)"><svg viewBox="0 0 244.43135999999998 39.568820189352785" height="39.568820189352785" width="244.43135999999998"><g id="textblocktransform"><svg viewBox="0 0 244.43135999999998 39.568820189352785" height="39.568820189352785" width="244.43135999999998" id="textblock"><g><svg viewBox="0 0 244.43135999999998 39.568820189352785" height="39.568820189352785" width="244.43135999999998"><g transform="matrix(1,0,0,1,0,0)"><svg width="244.43135999999998" viewBox="2.64 -39.84 311.59000000000003 50.92" height="39.568820189352785" data-palette-color="#61777f"><g class="wordmark-text-0" data-fill-palette-color="primary" id="text-0"><path d="M22.75-35.99L29.44-35.99 18.75-14.65 18.75 0 12.79 0 12.79-14.16 2.64-35.99 9.33-35.99 15.53-19.87 16.06-19.87 22.75-35.99ZM56.15-14.89L56.15-8.54 56.15-8.15Q56.15-7.76 56.2-7.01 56.25-6.25 56.39-5.47 56.54-4.69 56.86-4.05 57.18-3.42 57.71-3.22L57.71-3.22 56.15 0.05Q55.52 0.05 54.81-0.24 54.1-0.54 53.44-1.07 52.78-1.61 52.32-2.27 51.85-2.93 51.61-3.71L51.61-3.71Q51.27-2.88 50.41-2.17 49.56-1.46 48.48-0.9 47.41-0.34 46.16-0.05 44.92 0.24 43.85 0.24L43.85 0.24Q42.19 0.24 40.65-0.2 39.11-0.63 37.94-1.61 36.77-2.59 36.11-4.2 35.45-5.81 35.45-8.15L35.45-8.15Q35.45-10.4 36.4-12.04 37.35-13.67 38.84-14.72 40.33-15.77 42.23-16.28 44.14-16.8 46.09-16.8L46.09-16.8 50.24-16.8Q50.24-19.19 50-20.61 49.75-22.02 49.17-22.68 48.58-23.34 47.73-23.51 46.87-23.68 45.7-23.68L45.7-23.68Q44.63-23.68 43.67-23.41 42.72-23.14 41.92-22.78 41.11-22.41 40.5-21.97 39.89-21.53 39.6-21.29L39.6-21.29 37.4-24.66Q37.89-25.2 38.86-25.76 39.84-26.32 41.11-26.76 42.38-27.2 43.87-27.47 45.36-27.73 46.97-27.73L46.97-27.73Q48.44-27.73 49.83-27.44 51.22-27.15 52.37-26.46 53.51-25.78 54.37-24.63 55.22-23.49 55.56-21.78L55.56-21.78Q55.91-20.07 56.03-18.33 56.15-16.6 56.15-14.89L56.15-14.89ZM50.29-6.59L50.29-13.33 47.17-13.33Q46.19-13.33 45.11-13.13 44.04-12.94 43.11-12.4 42.19-11.87 41.57-10.86 40.96-9.86 40.96-8.3L40.96-8.3Q40.96-5.86 42.06-4.79 43.16-3.71 45.26-3.71L45.26-3.71Q46.73-3.71 48.07-4.49 49.41-5.27 50.29-6.59L50.29-6.59ZM64.94-2.2L64.94-2.2 67.43-6.15Q68.4-5.47 69.75-4.88 71.09-4.3 73.14-4.3L73.14-4.3Q75.83-4.3 77.34-5.13 78.85-5.96 78.85-7.57L78.85-7.57Q78.85-8.74 77.97-9.45 77.09-10.16 75.75-10.67 74.41-11.18 72.87-11.65 71.33-12.11 70.01-12.79L70.01-12.79Q67.43-14.16 66.13-15.67 64.84-17.19 64.84-19.68L64.84-19.68Q64.84-21.73 65.69-23.29 66.55-24.85 67.91-25.9 69.28-26.95 71.04-27.49 72.8-28.03 74.6-28.03L74.6-28.03Q77.05-28.03 79.1-27.51 81.15-27 83.05-25.78L83.05-25.78 81.15-21.73Q79.68-22.56 77.97-22.88 76.26-23.19 74.6-23.19L74.6-23.19Q72.8-23.19 71.75-22.39 70.7-21.58 70.7-19.87L70.7-19.87Q70.7-18.55 71.65-17.8 72.6-17.04 74.12-16.46 75.63-15.87 77.34-15.28 79.05-14.7 80.54-13.79 82.03-12.89 83-11.52 83.98-10.16 83.98-8.01L83.98-8.01Q83.98-5.91 83.15-4.35 82.32-2.78 80.9-1.76 79.49-0.73 77.63-0.24 75.78 0.24 73.68 0.24L73.68 0.24Q72.41 0.24 71.33 0.17 70.26 0.1 69.23-0.15 68.21-0.39 67.18-0.88 66.16-1.37 64.94-2.2ZM114.45-0.98L114.45 0 108.49 0 108.49-14.99Q108.49-16.65 108.34-18.16 108.2-19.68 107.66-20.85 107.12-22.02 106.19-22.68 105.27-23.34 103.61-23.34L103.61-23.34Q103.07-23.34 102.21-23.19 101.36-23.05 100.46-22.75 99.55-22.46 98.75-22.02 97.94-21.58 97.55-21L97.55-21 97.55-20.7 97.55-20.61 97.55-9.77 97.55-9.67 97.55 0 91.64 0 91.64-37.94 97.55-37.94 97.55-24.76Q98.14-25.29 99.04-25.85 99.94-26.42 101.02-26.86 102.09-27.29 103.22-27.56 104.34-27.83 105.41-27.83L105.41-27.83Q107.61-27.83 109.12-26.9 110.64-25.98 112.15-24.51L112.15-24.51Q112.98-23.68 113.44-22.58 113.91-21.48 114.13-20.29 114.35-19.09 114.4-17.87 114.45-16.65 114.45-15.48L114.45-15.48 114.45-0.98ZM141.35-14.89L141.35-8.54 141.35-8.15Q141.35-7.76 141.4-7.01 141.45-6.25 141.59-5.47 141.74-4.69 142.06-4.05 142.37-3.42 142.91-3.22L142.91-3.22 141.35 0.05Q140.71 0.05 140-0.24 139.3-0.54 138.64-1.07 137.98-1.61 137.51-2.27 137.05-2.93 136.81-3.71L136.81-3.71Q136.46-2.88 135.61-2.17 134.76-1.46 133.68-0.9 132.61-0.34 131.36-0.05 130.12 0.24 129.04 0.24L129.04 0.24Q127.38 0.24 125.84-0.2 124.31-0.63 123.13-1.61 121.96-2.59 121.3-4.2 120.64-5.81 120.64-8.15L120.64-8.15Q120.64-10.4 121.6-12.04 122.55-13.67 124.04-14.72 125.53-15.77 127.43-16.28 129.34-16.8 131.29-16.8L131.29-16.8 135.44-16.8Q135.44-19.19 135.2-20.61 134.95-22.02 134.37-22.68 133.78-23.34 132.92-23.51 132.07-23.68 130.9-23.68L130.9-23.68Q129.82-23.68 128.87-23.41 127.92-23.14 127.11-22.78 126.31-22.41 125.7-21.97 125.09-21.53 124.79-21.29L124.79-21.29 122.6-24.66Q123.09-25.2 124.06-25.76 125.04-26.32 126.31-26.76 127.58-27.2 129.07-27.47 130.56-27.73 132.17-27.73L132.17-27.73Q133.63-27.73 135.02-27.44 136.42-27.15 137.56-26.46 138.71-25.78 139.57-24.63 140.42-23.49 140.76-21.78L140.76-21.78Q141.1-20.07 141.23-18.33 141.35-16.6 141.35-14.89L141.35-14.89ZM135.49-6.59L135.49-13.33 132.36-13.33Q131.39-13.33 130.31-13.13 129.24-12.94 128.31-12.4 127.38-11.87 126.77-10.86 126.16-9.86 126.16-8.3L126.16-8.3Q126.16-5.86 127.26-4.79 128.36-3.71 130.46-3.71L130.46-3.71Q131.92-3.71 133.27-4.49 134.61-5.27 135.49-6.59L135.49-6.59ZM150.13-2.2L150.13-2.2 152.62-6.15Q153.6-5.47 154.94-4.88 156.29-4.3 158.34-4.3L158.34-4.3Q161.02-4.3 162.54-5.13 164.05-5.96 164.05-7.57L164.05-7.57Q164.05-8.74 163.17-9.45 162.29-10.16 160.95-10.67 159.61-11.18 158.07-11.65 156.53-12.11 155.21-12.79L155.21-12.79Q152.62-14.16 151.33-15.67 150.04-17.19 150.04-19.68L150.04-19.68Q150.04-21.73 150.89-23.29 151.75-24.85 153.11-25.9 154.48-26.95 156.24-27.49 158-28.03 159.8-28.03L159.8-28.03Q162.24-28.03 164.29-27.51 166.34-27 168.25-25.78L168.25-25.78 166.34-21.73Q164.88-22.56 163.17-22.88 161.46-23.19 159.8-23.19L159.8-23.19Q158-23.19 156.95-22.39 155.9-21.58 155.9-19.87L155.9-19.87Q155.9-18.55 156.85-17.8 157.8-17.04 159.31-16.46 160.83-15.87 162.54-15.28 164.25-14.7 165.73-13.79 167.22-12.89 168.2-11.52 169.18-10.16 169.18-8.01L169.18-8.01Q169.18-5.91 168.35-4.35 167.52-2.78 166.1-1.76 164.68-0.73 162.83-0.24 160.97 0.24 158.87 0.24L158.87 0.24Q157.6 0.24 156.53 0.17 155.46 0.1 154.43-0.15 153.41-0.39 152.38-0.88 151.35-1.37 150.13-2.2Z" fill="#61777f" data-fill-palette-color="primary"></path><path d="M207.41-9.86L207.41-9.86Q207.41-7.91 206.6-6.08 205.8-4.25 204.33-2.86 202.87-1.46 200.72-0.63 198.57 0.2 195.84 0.2L195.84 0.2Q194.67 0.2 193.42 0.07 192.18-0.05 190.91-0.34 189.64-0.63 188.49-1.15 187.34-1.66 186.51-2.39L186.51-2.39 187.54-6.59Q188.22-6.2 189.27-5.83 190.32-5.47 191.44-5.15 192.57-4.83 193.69-4.64 194.81-4.44 195.79-4.44L195.79-4.44Q198.77-4.44 200.35-5.83 201.94-7.23 201.94-9.96L201.94-9.96Q201.94-11.62 200.82-12.79 199.7-13.96 198.01-14.92 196.33-15.87 194.37-16.82 192.42-17.77 190.71-19.07 189-20.36 187.88-22.12 186.76-23.88 186.76-26.51L186.76-26.51Q186.76-28.91 187.63-30.76 188.51-32.62 190-33.91 191.49-35.21 193.47-35.89 195.45-36.57 197.64-36.57L197.64-36.57Q199.89-36.57 202.19-36.16 204.48-35.74 205.9-34.81L205.9-34.81Q205.6-34.18 205.21-33.42 204.82-32.67 204.48-32.01 204.14-31.35 203.89-30.91 203.65-30.47 203.6-30.42L203.6-30.42Q203.31-30.57 202.94-30.81 202.58-31.05 201.89-31.3 201.21-31.54 200.09-31.64 198.96-31.74 197.2-31.59L197.2-31.59Q196.23-31.49 195.35-31.03 194.47-30.57 193.79-29.88 193.1-29.2 192.71-28.34 192.32-27.49 192.32-26.71L192.32-26.71Q192.32-24.76 193.45-23.56 194.57-22.36 196.23-21.46 197.89-20.56 199.84-19.7 201.79-18.85 203.48-17.63 205.16-16.41 206.29-14.58 207.41-12.74 207.41-9.86ZM233.19-14.89L233.19-8.54 233.19-8.15Q233.19-7.76 233.24-7.01 233.29-6.25 233.43-5.47 233.58-4.69 233.9-4.05 234.21-3.42 234.75-3.22L234.75-3.22 233.19 0.05Q232.55 0.05 231.85-0.24 231.14-0.54 230.48-1.07 229.82-1.61 229.36-2.27 228.89-2.93 228.65-3.71L228.65-3.71Q228.31-2.88 227.45-2.17 226.6-1.46 225.52-0.9 224.45-0.34 223.2-0.05 221.96 0.24 220.88 0.24L220.88 0.24Q219.22 0.24 217.69-0.2 216.15-0.63 214.98-1.61 213.8-2.59 213.14-4.2 212.49-5.81 212.49-8.15L212.49-8.15Q212.49-10.4 213.44-12.04 214.39-13.67 215.88-14.72 217.37-15.77 219.27-16.28 221.18-16.8 223.13-16.8L223.13-16.8 227.28-16.8Q227.28-19.19 227.04-20.61 226.79-22.02 226.21-22.68 225.62-23.34 224.77-23.51 223.91-23.68 222.74-23.68L222.74-23.68Q221.67-23.68 220.71-23.41 219.76-23.14 218.96-22.78 218.15-22.41 217.54-21.97 216.93-21.53 216.64-21.29L216.64-21.29 214.44-24.66Q214.93-25.2 215.9-25.76 216.88-26.32 218.15-26.76 219.42-27.2 220.91-27.47 222.4-27.73 224.01-27.73L224.01-27.73Q225.47-27.73 226.87-27.44 228.26-27.15 229.4-26.46 230.55-25.78 231.41-24.63 232.26-23.49 232.6-21.78L232.6-21.78Q232.94-20.07 233.07-18.33 233.19-16.6 233.19-14.89L233.19-14.89ZM227.33-6.59L227.33-13.33 224.2-13.33Q223.23-13.33 222.15-13.13 221.08-12.94 220.15-12.4 219.22-11.87 218.61-10.86 218-9.86 218-8.3L218-8.3Q218-5.86 219.1-4.79 220.2-3.71 222.3-3.71L222.3-3.71Q223.76-3.71 225.11-4.49 226.45-5.27 227.33-6.59L227.33-6.59ZM244.71 6.93L248.13 3.56Q248.62 4.39 249.37 4.93 250.13 5.47 250.94 5.76 251.74 6.05 252.55 6.18 253.35 6.3 253.99 6.3L253.99 6.3Q257.01 6.3 258.72 4.54 260.43 2.78 260.43-1.46L260.43-1.46 260.43-2.73 260.43-2.83 260.48-3.08Q260.48-3.13 260.46-3.17 260.43-3.22 260.43-3.27L260.43-3.27Q260.29-2.64 259.58-2 258.87-1.37 257.8-0.85 256.72-0.34 255.35-0.05 253.99 0.24 252.52 0.24L252.52 0.24Q249.79 0.24 247.74-0.95 245.69-2.15 244.32-4.15 242.95-6.15 242.32-8.74 241.68-11.33 241.68-14.16L241.68-14.16Q241.68-17.97 242.73-20.56 243.78-23.14 245.42-24.78 247.05-26.42 249.08-27.1 251.11-27.78 253.06-27.78L253.06-27.78Q255.45-27.78 257.43-26.95 259.41-26.12 260.43-24.76L260.43-24.76 261.07-27.54 266.34-27.54 266.29 0Q266.1 2.98 265.1 5.08 264.09 7.18 262.53 8.54 260.97 9.91 258.92 10.5 256.87 11.08 254.52 11.08L254.52 11.08Q251.79 11.08 249.13 10.13 246.47 9.18 244.71 6.93L244.71 6.93ZM260.82-13.96L260.82-13.96Q260.82-15.92 260.33-17.58 259.85-19.24 259.02-20.51 258.19-21.78 256.97-22.51 255.74-23.24 254.33-23.24L254.33-23.24Q252.86-23.24 251.67-22.49 250.47-21.73 249.64-20.46 248.81-19.19 248.37-17.48 247.93-15.77 247.93-13.87L247.93-13.87Q247.93-11.91 248.4-10.18 248.86-8.45 249.71-7.18 250.57-5.91 251.77-5.15 252.96-4.39 254.43-4.39L254.43-4.39Q255.94-4.39 257.11-5.15 258.28-5.91 259.09-7.2 259.9-8.5 260.36-10.25 260.82-12.01 260.82-13.96ZM281.77-27.54L281.77 0 275.81 0 275.81-27.54 281.77-27.54ZM282.3-36.33L282.3-36.33Q282.3-34.86 281.28-33.86 280.25-32.86 278.79-32.86L278.79-32.86Q277.32-32.86 276.32-33.89 275.32-34.91 275.32-36.33L275.32-36.33Q275.32-37.79 276.35-38.82 277.37-39.84 278.79-39.84L278.79-39.84Q280.25-39.84 281.28-38.82 282.3-37.79 282.3-36.33ZM295.93-37.94L295.93-8.4Q295.93-6.74 296.36-5.79 296.8-4.83 297.59-4.37 298.37-3.91 299.37-3.76 300.37-3.61 301.54-3.61L301.54-3.61 301.54 0Q300.91 0.1 300.22 0.15L300.22 0.15Q299.69 0.2 298.95 0.22 298.22 0.24 297.49 0.24L297.49 0.24Q296.76 0.24 296.02 0.2 295.29 0.15 294.7 0.05L294.7 0.05Q293.04-0.29 292.12-1.42 291.19-2.54 290.7-3.93 290.21-5.32 290.09-6.64 289.97-7.96 289.97-8.69L289.97-8.69 289.97-9.28 289.97-37.94 295.93-37.94ZM313.7-27.54L313.7 0 307.74 0 307.74-27.54 313.7-27.54ZM314.23-36.33L314.23-36.33Q314.23-34.86 313.21-33.86 312.18-32.86 310.72-32.86L310.72-32.86Q309.25-32.86 308.25-33.89 307.25-34.91 307.25-36.33L307.25-36.33Q307.25-37.79 308.28-38.82 309.3-39.84 310.72-39.84L310.72-39.84Q312.18-39.84 313.21-38.82 314.23-37.79 314.23-36.33Z" fill="#000000" data-fill-palette-color="secondary"></path></g></svg></g></svg></g></svg></g></svg></g><g><svg viewBox="0 0 195.64444513373905 195.64444513373905" height="195.64444513373905" width="195.64444513373905"><g><svg></svg></g><g id="icon-0"><svg viewBox="0 0 195.64444513373905 195.64444513373905" height="195.64444513373905" width="195.64444513373905"><g><path d="M0 97.822c0-54.026 43.797-97.822 97.822-97.822 54.026 0 97.822 43.797 97.822 97.822 0 54.026-43.797 97.822-97.822 97.822-54.026 0-97.822-43.797-97.822-97.822zM97.822 192.076c52.055 0 94.254-42.199 94.254-94.254 0-52.055-42.199-94.254-94.254-94.254-52.055 0-94.254 42.199-94.254 94.254 0 52.055 42.199 94.254 94.254 94.254z" data-fill-palette-color="accent" fill="#c8c8c8" stroke="transparent"></path></g><g transform="matrix(1,0,0,1,38.499677066159826,60.42173501149131)"><svg viewBox="0 0 118.6450910014194 74.80097511075644" height="74.80097511075644" width="118.6450910014194"><g><svg xmlns="http://www.w3.org/2000/svg" xmlns:xlink="http://www.w3.org/1999/xlink" version="1.1" x="0" y="0" viewBox="1.9996276558104205 18.999652121577615 91.99688295453582 58.00034787842239" enable-background="new 0 0 96 96" xml:space="preserve" height="74.80097511075644" width="118.6450910014194" class="icon-dxe-0" data-fill-palette-color="accent" id="dxe-0"><path d="M47.772 46.8A7.95 7.95 0 0 1 44.052 46.756L18.66 40.408 14.052 60.548A2.01 2.01 0 0 0 14.588 62.416C20.548 68.372 34.724 70.5 46.004 70.5 57.279 70.5 71.456 68.32 77.42 62.355 77.904 61.868 78.108 61.107 77.956 60.439L73.48 40.964z" fill="#c8c8c8" data-fill-palette-color="accent"></path><path d="M90.54 25.036L46.54 19.036A4 4 0 0 0 45.408 19.044L5.408 25.044A4.01 4.01 0 0 0 2.004 28.808 4.006 4.006 0 0 0 5.032 32.88L45.032 42.88C45.348 42.964 45.676 43 46 43 46.296 43 46.592 42.968 46.888 42.904L90.888 32.904A3.99 3.99 0 0 0 93.992 28.824 3.99 3.99 0 0 0 90.54 25.036" fill="#c8c8c8" data-fill-palette-color="accent"></path><path d="M88 37C86.9 37 86 37.896 86 39V63C86 64.1 86.9 65 88 65S90 64.1 90 63V39C90 37.896 89.1 37 88 37" fill="#c8c8c8" data-fill-palette-color="accent"></path><path d="M88 69C86.9 69 86 69.9 86 71V75C86 76.1 86.9 77 88 77S90 76.1 90 75V71C90 69.9 89.1 69 88 69" fill="#c8c8c8" data-fill-palette-color="accent"></path></svg></g></svg></g></svg></g></svg></g></svg></g></svg></g><g><path d="M0 123.6c0-68.262 55.338-123.6 123.6-123.6 48.658 0 90.75 28.117 110.913 68.991h-1.062c-20.088-40.331-61.734-68.04-109.851-68.04-67.737 0-122.649 54.912-122.649 122.649 0 67.737 54.912 122.649 122.649 122.649 48.117 0 89.763-27.709 109.851-68.04h1.062c-20.163 40.873-62.254 68.991-110.913 68.991-68.262 0-123.6-55.338-123.6-123.6z" fill="#61777f" stroke="transparent" data-fill-palette-color="tertiary"></path></g></svg></g><defs></defs></svg><rect width="395.52" height="247.2" fill="none" stroke="none" visibility="hidden"></rect></g></svg></g></svg>