<?xml version="1.0" encoding="UTF-8"?>
<svg version="1.1" xmlns="http://www.w3.org/2000/svg" width="500" height="500">
<path d="M0 0 C1.15093366 -0.00382555 2.30186732 -0.00765109 3.48767775 -0.01159257 C7.32343128 -0.02186668 11.15903354 -0.017941 14.99479675 -0.01396179 C17.7534732 -0.01721976 20.51214137 -0.02343134 23.27081299 -0.02944946 C29.9741537 -0.04216566 36.6774543 -0.04399398 43.38080505 -0.0416492 C48.83288139 -0.03986232 54.2849456 -0.0416236 59.73702049 -0.04587364 C60.90333585 -0.04676643 60.90333585 -0.04676643 62.09321314 -0.04767724 C63.67307729 -0.04888907 65.25294145 -0.0501032 66.8328056 -0.05131962 C81.63219457 -0.06218344 96.43156073 -0.06003824 111.23095097 -0.05393478 C124.74953501 -0.04876746 138.26804694 -0.06001824 151.78661672 -0.07903299 C165.68954546 -0.09843745 179.59244013 -0.10666278 193.49538249 -0.10290974 C201.29195732 -0.10100155 209.08847082 -0.10344786 216.88503456 -0.11762428 C223.52292829 -0.1295724 230.16072293 -0.13090474 236.79861812 -0.11883412 C240.18057388 -0.11296912 243.56220121 -0.11342495 246.94416809 -0.12383652 C250.62204271 -0.13433935 254.2994371 -0.12617434 257.97729492 -0.11352539 C259.02985421 -0.12089968 260.08241349 -0.12827396 261.16686851 -0.13587171 C277.31844744 -0.01971095 290.23467272 4.84745255 301.96037292 15.97944641 C313.912577 28.26833229 317.49963461 42.3168247 317.43981934 59.08157349 C317.44364488 60.23250714 317.44747043 61.3834408 317.4514119 62.56925124 C317.46168602 66.40500476 317.45776034 70.24060703 317.45378113 74.07637024 C317.45703909 76.83504669 317.46325067 79.59371486 317.4692688 82.35238647 C317.481985 89.05572719 317.48381332 95.75902779 317.48146854 102.46237854 C317.47968165 107.91445488 317.48144294 113.36651909 317.48569298 118.81859398 C317.48628817 119.59613755 317.48688336 120.37368112 317.48749658 121.17478662 C317.4887084 122.75465078 317.48992254 124.33451493 317.49113896 125.91437908 C317.50200277 140.71376805 317.49985758 155.51313421 317.49375411 170.31252446 C317.48858679 183.83110849 317.49983757 197.34962043 317.51885233 210.86819021 C317.53825679 224.77111894 317.54648211 238.67401362 317.54272908 252.57695597 C317.54082089 260.37353081 317.5432672 268.17004431 317.55744362 275.96660805 C317.56939174 282.60450178 317.57072408 289.24229642 317.55865345 295.8801916 C317.55278846 299.26214736 317.55324429 302.64377469 317.56365585 306.02574158 C317.57415869 309.70361619 317.56599368 313.38101059 317.55334473 317.05886841 C317.56071901 318.11142769 317.5680933 319.16398697 317.57569104 320.24844199 C317.45953029 336.40002092 312.59236679 349.31624621 301.46037292 361.04194641 C289.17148705 372.99415049 275.12299464 376.58120809 258.35824585 376.52139282 C257.20731219 376.52521837 256.05637853 376.52904392 254.8705681 376.53298539 C251.03481457 376.54325951 247.1992123 376.53933382 243.3634491 376.53535461 C240.60477265 376.53861258 237.84610448 376.54482416 235.08743286 376.55084229 C228.38409215 376.56355849 221.68079154 376.56538681 214.9774408 376.56304202 C209.52536446 376.56125514 204.07330025 376.56301642 198.62122536 376.56726646 C197.45491 376.56815925 197.45491 376.56815925 196.26503271 376.56907007 C194.68516856 376.57028189 193.1053044 376.57149602 191.52544025 376.57271244 C176.72605128 376.58357626 161.92668512 376.58143107 147.12729488 376.5753276 C133.60871084 376.57016028 120.09019891 376.58141106 106.57162913 376.60042582 C92.66870039 376.61983027 78.76580572 376.6280556 64.86286336 376.62430257 C57.06628853 376.62239437 49.26977503 376.62484068 41.47321129 376.63901711 C34.83531756 376.65096522 28.19752292 376.65229756 21.55962773 376.64022694 C18.17767197 376.63436194 14.79604464 376.63481778 11.41407776 376.64522934 C7.73620314 376.65573218 4.05880875 376.64756716 0.38095093 376.63491821 C-1.197888 376.64597964 -1.197888 376.64597964 -2.80862266 376.65726453 C-18.96020159 376.54110377 -31.87642688 371.67394027 -43.60212708 360.54194641 C-55.55433115 348.25306053 -59.14138876 334.20456813 -59.08157349 317.43981934 C-59.08731181 315.71341885 -59.08731181 315.71341885 -59.09316605 313.95214158 C-59.10344017 310.11638806 -59.09951449 306.28078579 -59.09553528 302.44502258 C-59.09879324 299.68634614 -59.10500482 296.92767796 -59.11102295 294.16900635 C-59.12373915 287.46566563 -59.12556747 280.76236503 -59.12322269 274.05901428 C-59.1214358 268.60693795 -59.12319709 263.15487373 -59.12744713 257.70279884 C-59.12804232 256.92525527 -59.12863751 256.1477117 -59.12925073 255.3466062 C-59.13046255 253.76674204 -59.13167669 252.18687789 -59.13289311 250.60701374 C-59.14375692 235.80762477 -59.14161173 221.00825861 -59.13550826 206.20886836 C-59.13034094 192.69028433 -59.14159172 179.17177239 -59.16060648 165.65320262 C-59.18001094 151.75027388 -59.18823626 137.84737921 -59.18448323 123.94443685 C-59.18257504 116.14786201 -59.18502135 108.35134852 -59.19919777 100.55478477 C-59.21114589 93.91689104 -59.21247823 87.2790964 -59.2004076 80.64120122 C-59.19454261 77.25924546 -59.19499844 73.87761813 -59.20541 70.49565125 C-59.21591284 66.81777663 -59.20774783 63.14038223 -59.19509888 59.46252441 C-59.20247316 58.40996513 -59.20984745 57.35740585 -59.21744519 56.27295083 C-59.10128444 40.1213719 -54.23412094 27.20514661 -43.10212708 15.47944641 C-30.8132412 3.52724234 -16.76474879 -0.05981527 0 0 Z " fill="#0288D1" transform="translate(120.82087707519531,61.73930358886719)"/>
<path d="M0 0 C17.16 0 34.32 0 52 0 C52.33 8.58 52.66 17.16 53 26 C54.11375 24.35 55.2275 22.7 56.375 21 C64.15180779 10.32406422 74.36583985 3.48595948 87.2109375 0.54296875 C107.1347731 -2.31209635 125.5063489 0.03982482 142 12 C142.74765625 12.52207031 143.4953125 13.04414063 144.265625 13.58203125 C157.92262637 24.20115633 164.39096001 42.92995404 166.72546768 59.41061401 C167.75419221 69.11353315 167.35623596 78.97706512 167.29296875 88.71875 C167.28736252 91.27420806 167.28309728 93.82966938 167.28010559 96.38513184 C167.26989418 102.38061615 167.24634818 108.37589896 167.21605712 114.37130308 C167.17895292 121.88161744 167.16275145 129.39196032 167.14648438 136.90234375 C167.11744389 150.26835952 167.05731921 163.6340093 167 177 C149.84 177 132.68 177 115 177 C114.95101562 169.99265625 114.90203125 162.9853125 114.8515625 155.765625 C114.81614915 151.3085799 114.78017367 146.85155336 114.7421875 142.39453125 C114.6820363 135.3305944 114.62389106 128.26668333 114.578125 121.20263672 C114.541069 115.50318365 114.49465548 109.80387454 114.44193649 104.10454559 C114.42349996 101.93744194 114.40835303 99.77030755 114.39665604 97.60315704 C115.00230358 74.31824936 115.00230358 74.31824936 105.2109375 53.96484375 C97.63411617 46.85591378 90.29055159 44.34502856 79.95532227 44.46118164 C71.57843939 44.85491191 65.84490077 47.72905182 60.125 53.75 C53.86160252 60.98910262 52.4071551 68.82201229 52.45410156 78.11938477 C52.44376389 79.19359177 52.43342621 80.26779877 52.42277527 81.3745575 C52.39346541 84.89699558 52.39185054 88.41885608 52.390625 91.94140625 C52.37563545 94.39478137 52.35890668 96.84814643 52.34051514 99.30149841 C52.29691692 105.73760454 52.276859 112.17357454 52.26177979 118.60980225 C52.23873195 126.34348593 52.18631086 134.0770201 52.13883972 141.81058502 C52.07011343 153.54042897 52.03859239 165.26984391 52 177 C34.84 177 17.68 177 0 177 C0 118.59 0 60.18 0 0 Z " fill="#FCFDFD" transform="translate(208,198)"/>
<path d="M0 0 C17.16 0 34.32 0 52 0 C52 58.41 52 116.82 52 177 C34.84 177 17.68 177 0 177 C0 118.59 0 60.18 0 0 Z " fill="#FEFEFE" transform="translate(125,198)"/>
<path d="M0 0 C5.54937228 3.99112463 9.21308845 8.96562266 11.15625 15.55078125 C12.06815266 24.60648126 11.20435119 32.91004597 5.59375 40.30078125 C-0.26312817 46.44405933 -6.60551214 48.84483867 -15.03125 49.05078125 C-22.97619938 48.72404091 -28.30169862 46.83551379 -34.19921875 41.390625 C-40.17085677 34.70976631 -41.67947067 27.79032235 -41.32421875 18.95703125 C-40.25415367 11.37087881 -36.83150984 5.36379886 -30.70703125 0.734375 C-21.28439915 -5.25107055 -9.72282517 -5.60325152 0 0 Z " fill="#FAFCFD" transform="translate(165.84375,128.44921875)"/>
</svg>
